<mxfile host="Electron" agent="Mozilla/5.0 (X11; Linux x86_64) AppleWebKit/537.36 (KHTML, like Gecko) draw.io/28.1.2 Chrome/138.0.7204.243 Electron/37.4.0 Safari/537.36" version="28.1.2">
  <diagram name="Page-1" id="OgMk2gwqRUxozm-X-R0p">
    <mxGraphModel dx="598" dy="450" grid="1" gridSize="10" guides="1" tooltips="1" connect="1" arrows="1" fold="1" page="0" pageScale="1" pageWidth="850" pageHeight="1100" math="0" shadow="0">
      <root>
        <mxCell id="0" />
        <mxCell id="1" parent="0" />
        <mxCell id="3R95oQqw8LJTqcAPyp22-2" value="&lt;span style=&quot;font-size: 24px;&quot;&gt;&lt;b&gt;Assets of program&lt;/b&gt;&lt;/span&gt;" style="text;html=1;align=center;verticalAlign=middle;whiteSpace=wrap;rounded=0;" parent="1" vertex="1">
          <mxGeometry x="400" y="150" width="180" height="50" as="geometry" />
        </mxCell>
        <mxCell id="3R95oQqw8LJTqcAPyp22-3" value="EXCEL WITH WORDS" style="rounded=0;whiteSpace=wrap;html=1;fillColor=#15FF00;fontColor=#FFFFFF;strokeColor=#006EAF;fontStyle=1" parent="1" vertex="1">
          <mxGeometry x="425" y="230" width="120" height="60" as="geometry" />
        </mxCell>
        <mxCell id="3R95oQqw8LJTqcAPyp22-4" value="&lt;font style=&quot;font-size: 13px;&quot;&gt;index.html model for words&lt;/font&gt;" style="rounded=0;whiteSpace=wrap;html=1;fillColor=#FF3333;fontColor=#FFFFFF;strokeColor=#006EAF;fontStyle=1" parent="1" vertex="1">
          <mxGeometry x="580" y="230" width="120" height="60" as="geometry" />
        </mxCell>
        <mxCell id="3R95oQqw8LJTqcAPyp22-5" value="&lt;font style=&quot;font-size: 15px;&quot;&gt;Text files&amp;nbsp;&lt;/font&gt;" style="rounded=0;whiteSpace=wrap;html=1;fillColor=#0066CC;fontColor=#FFFFFF;strokeColor=#006EAF;fontStyle=1" parent="1" vertex="1">
          <mxGeometry x="270" y="230" width="120" height="60" as="geometry" />
        </mxCell>
        <mxCell id="3R95oQqw8LJTqcAPyp22-8" value="&lt;font style=&quot;font-size: 18px;&quot;&gt;&lt;b style=&quot;&quot;&gt;Program components&lt;/b&gt;&lt;/font&gt;" style="text;html=1;align=center;verticalAlign=middle;whiteSpace=wrap;rounded=0;" parent="1" vertex="1">
          <mxGeometry x="430" y="400" width="110" height="50" as="geometry" />
        </mxCell>
        <mxCell id="3R95oQqw8LJTqcAPyp22-14" value="Python components" style="swimlane;whiteSpace=wrap;html=1;fillColor=#0066CC;" parent="1" vertex="1">
          <mxGeometry x="390" y="480" width="200" height="200" as="geometry" />
        </mxCell>
        <mxCell id="3R95oQqw8LJTqcAPyp22-13" value="&lt;font style=&quot;font-size: 15px;&quot;&gt;Python text wrapper&lt;/font&gt;" style="rounded=0;whiteSpace=wrap;html=1;fillColor=#0066CC;fontColor=#FFFFFF;strokeColor=#006EAF;fontStyle=1" parent="3R95oQqw8LJTqcAPyp22-14" vertex="1">
          <mxGeometry x="40" y="60" width="120" height="60" as="geometry" />
        </mxCell>
        <mxCell id="Xmff8rb6BWlSERZBsKoM-1" value="&lt;font style=&quot;font-size: 15px;&quot;&gt;Python text Spliter&lt;/font&gt;" style="rounded=0;whiteSpace=wrap;html=1;fillColor=#0066CC;fontColor=#FFFFFF;strokeColor=#006EAF;fontStyle=1" vertex="1" parent="3R95oQqw8LJTqcAPyp22-14">
          <mxGeometry x="40" y="130" width="120" height="60" as="geometry" />
        </mxCell>
        <mxCell id="3R95oQqw8LJTqcAPyp22-15" value="Bash components" style="swimlane;whiteSpace=wrap;html=1;fillColor=#006EAF;" parent="1" vertex="1">
          <mxGeometry x="660" y="480" width="200" height="200" as="geometry" />
        </mxCell>
        <mxCell id="3R95oQqw8LJTqcAPyp22-11" value="&lt;font style=&quot;font-size: 15px;&quot;&gt;Bash components&lt;/font&gt;" style="rounded=0;whiteSpace=wrap;html=1;fillColor=#0FBCFC;fontColor=#FFFFFF;strokeColor=#006EAF;fontStyle=1" parent="3R95oQqw8LJTqcAPyp22-15" vertex="1">
          <mxGeometry x="40" y="50" width="120" height="60" as="geometry" />
        </mxCell>
        <mxCell id="3R95oQqw8LJTqcAPyp22-16" value="Front-end components" style="swimlane;whiteSpace=wrap;html=1;fillColor=#CC7206;" parent="1" vertex="1">
          <mxGeometry x="120" y="480" width="200" height="200" as="geometry" />
        </mxCell>
        <mxCell id="3R95oQqw8LJTqcAPyp22-12" value="" style="rounded=0;whiteSpace=wrap;html=1;fillColor=#CC7206;fontColor=#FFFFFF;strokeColor=#006EAF;fontStyle=1" parent="3R95oQqw8LJTqcAPyp22-16" vertex="1">
          <mxGeometry x="40" y="60" width="120" height="60" as="geometry" />
        </mxCell>
      </root>
    </mxGraphModel>
  </diagram>
</mxfile>
